# AST/ASF file generated using VICON BodyLanguage
# -----------------------------------------------
:version 1.10
:name VICON
:units
  mass 1.0
  length 0.45
  angle deg
:documentation
   .ast/.asf automatically generated from VICON data using
   VICON BodyBuilder and BodyLanguage model FoxedUp or BRILLIANT.MOD
:root
   order TX TY TZ RX RY RZ
   axis XYZ
   position 0 0 0  
   orientation 0 0 0 
:bonedata
  begin
     id 1 
     name lhipjoint
     direction 0.537252 -0.787203 0.302774 
     length 2.29576 
     axis 0 0 0  XYZ
  end
  begin
     id 2 
     name lfemur
     direction 0.34202 -0.939693 0  
     length 7.31114  
     axis 0 0 20  XYZ
    dof rx ry rz
    limits (-160.0 20.0)
           (-70.0 70.0)
           (-60.0 70.0)
  end
  begin
     id 3 
     name ltibia
     direction 0.34202 -0.939693 0   
     length 8.36008   
     axis 0 0 20   XYZ
    dof rx
    limits (-10.0 170.0)
  end
  begin
     id 4 
     name lfoot
     direction 0.0969116 -0.266263 0.959016   
     length 2.16704   
     axis -90 7.62852e-016 20   XYZ
    dof rx rz
    limits (-45.0 90.0)
           (-70.0 20.0)
  end
  begin
     id 5 
     name ltoes
     direction 1.53563e-011 -4.21779e-011 1   
     length 1.08338   
     axis -90 7.62852e-016 20   XYZ
    dof rx
    limits (-90.0 20.0)
  end
  begin
     id 6 
     name rhipjoint
     direction -0.588228 -0.754791 0.290308   
     length 2.39434  
     axis 0 0 0  XYZ 
  end
  begin
     id 7 
     name rfemur
     direction -0.34202 -0.939693 0   
     length 7.45207   
     axis 0 0 -20   XYZ
    dof rx ry rz
    limits (-160.0 20.0)
           (-70.0 70.0)
           (-70.0 60.0)
  end
  begin
     id 8 
     name rtibia
     direction -0.34202 -0.939693 0   
     length 8.03565   
     axis 0 0 -20   XYZ
    dof rx
    limits (-10.0 170.0)
 end
 begin
     id 9 
     name rfoot
     direction -0.107009 -0.294004 0.949795   
     length 2.11509  
     axis -90 -7.62852e-016 -20   XYZ
    dof rx rz
    limits (-45.0 90.0)
           (-20.0 70.0)
  end
  begin
     id 10 
     name rtoes
     direction -1.53533e-011 -4.22004e-011 1   
     length 1.05493   
     axis -90 -7.62852e-016 -20   XYZ
    dof rx
    limits (-90.0 20.0)
  end
  begin
     id 11 
     name lowerback
     direction -0.0115208 0.997969 -0.0626515   
     length 2.03153   
     axis 0 0 0   XYZ
    dof rx ry rz
    limits (-20.0 45.0)
           (-30.0 30.0)
           (-30.0 30.0)
  end
  begin
     id 12 
     name upperback
     direction -0.00423475 0.999974 -0.00583614   
     length 2.03619   
     axis 0 0 0   XYZ
    dof rx ry rz
    limits (-20.0 45.0)
           (-30.0 30.0)
           (-30.0 30.0)
  end
  begin
     id 13 
     name thorax
     direction 0.00289429 0.999728 0.0231573   
     length 2.03921   
     axis 0 0 0   XYZ
    dof rx ry rz
    limits (-20.0 45.0)
           (-30.0 30.0)
           (-30.0 30.0)
  end
  begin
     id 14 
     name lowerneck
     direction 0.0188995 0.987777 0.154721   
     length 1.78836   
     axis 0 0 0   XYZ
    dof rx ry rz
    limits (-20.0 45.0)
           (-30.0 30.0)
           (-30.0 30.0)
  end
  begin
     id 15 
     name upperneck
     direction -0.00612612 0.992995 -0.118   
     length 1.81789   
     axis 0 0 0   XYZ
    dof rx ry rz
    limits (-20.0 45.0)
           (-30.0 30.0)
           (-30.0 30.0)
  end
  begin
     id 16
     name head
     direction -0.00420226 0.998397 -0.0564482  
     length 1.82234  
     axis 0 0 0   XYZ
    dof rx ry rz
    limits (-20.0 45.0)
           (-30.0 30.0)
           (-30.0 30.0)
  end
  begin
     id 17 
     name lclavicle
     direction 0.916488 0.396539 0.0529676  
     length 3.51732  
     axis 0 0 0   XYZ
    dof ry rz
    limits (-20.0 10.0)
           (0.0 20.0)
  end
  begin
     id 18 
     name lhumerus
     direction 1 -4.4896e-011 8.36962e-028   
     length 5.45077   
     axis 180 -30 -90   XYZ
    dof rx ry rz
    limits (-60.0 90.0)
           (-90.0 90.0)
           (-90.0 90.0)
  end
  begin
     id 19
     name lradius
     direction 1 -4.48962e-011 3.01407e-027   
     length 3.05488   
     axis 180 -30 -90   XYZ
    dof rx
    limits (-10.0 170.0)
  end
  begin
     id 20
     name lwrist
     direction 1 -4.49002e-011 4.72961e-027   
     length 1.52744   
     axis -2.72261e-015 90 90   XYZ
    dof ry
    limits (-180.0 0.0)
 end
  begin
     id 21 
     name lhand
     direction 1 -4.4899e-011 9.45681e-027   
     length 0.638818   
     axis -6.0311e-015 90 90   XYZ
    dof rx rz
    limits (-90.0 90.0)
           (-45.0 45.0)
  end
  begin
     id 22 
     name lfingers
     direction 1 -4.48871e-011 1.88632e-026   
     length 0.515032   
     axis -1.20625e-014 90 90   XYZ
    dof rx
    limits (0.0 90.0)
  end
  begin
     id 23
     name lthumb
     direction 0.707107 -6.34964e-011 0.707107   
     length 0.739485   
     axis -90 45 6.32835e-014   XYZ
    dof rx rz
    limits (-45.0 45.0)
           (-45.0 45.0)
  end
  begin
     id 24 
     name rclavicle
     direction -0.949427 0.303202 0.0815894   
     length 3.76167  
     axis 0 0 0   XYZ 
    dof ry rz
    limits (-10.0 20.0)
           (-20.0 0.0)
  end
  begin
     id 25 
     name rhumerus
     direction -1 -4.48971e-011 -6.43969e-018  
     length 4.88702   
     axis 180 30 90   XYZ
    dof rx ry rz
    limits (-90.0 60.0)
           (-90.0 90.0)
           (-90.0 90.0)
  end
  begin
     id 26 
     name rradius
     direction -1 -4.48987e-011 5.46662e-027   
     length 3.22603   
     axis 180 30 90   XYZ
    dof rx
    limits (-10.0 170.0)
  end
  begin
     id 27 
     name rwrist
     direction -1 -4.48956e-011 4.72476e-027   
     length 1.61302   
     axis -2.72261e-015 -90 -90   XYZ
    dof ry
    limits (-180.0 0.0)
  end
  begin
     id 28
     name rhand
     direction -1 -4.4889e-011 9.43571e-027   
     length 0.716293   
     axis -6.0311e-015 -90 -90   XYZ
    dof rx rz
    limits (-90.0 90.0)
           (-45.0 45.0)
  end
  begin
     id 29
     name rfingers
     direction -1 -4.48887e-011 1.88701e-026   
     length 0.577494   
     axis -1.20625e-014 -90 -90   XYZ
    dof rx
    limits (0.0 90.0)
  end
  begin
     id 30
     name rthumb
     direction -0.707107 -6.34825e-011 0.707107   
     length 0.829169   
     axis -90 -45 -6.32835e-014   XYZ
    dof rx rz
    limits (-45.0 45.0)
           (-45.0 45.0)
  end
:hierarchy
  begin
    root lhipjoint rhipjoint lowerback
    lhipjoint lfemur
    lfemur ltibia
    ltibia lfoot
    lfoot ltoes
    rhipjoint rfemur
    rfemur rtibia
    rtibia rfoot
    rfoot rtoes
    lowerback upperback
    upperback thorax
    thorax lowerneck lclavicle rclavicle
    lowerneck upperneck
    upperneck head
    lclavicle lhumerus
    lhumerus lradius
    lradius lwrist
    lwrist lhand lthumb
    lhand lfingers
    rclavicle rhumerus
    rhumerus rradius
    rradius rwrist
    rwrist rhand rthumb
    rhand rfingers
  end

#!OML:ASF F:\VICON\USERDATA\INSTALL\rory3\rory3.ASF
:FULLY-SPECIFIED
:DEGREES
1615
root 1.49234 18.518 0.471217 8.02877 77.4723 -4.84016
lowerback -13.4244 -5.87177 -6.96474
upperback -5.60834 -6.32152 -5.40698
thorax 1.68562 -2.9375 -2.71779
lowerneck -7.91183 -16.8976 -9.68951
upperneck 7.30823 -22.6517 9.09932
head 5.57876 -10.9231 2.26956
rclavicle 8.50798e-014 -2.22639e-014
rhumerus 48.3852 -37.0962 -45.2183
rradius 48.7099
rwrist -12.2337
rhand -33.5249 9.55335
rfingers 7.12502
rthumb -6.72095 -20.32
lclavicle 8.50798e-014 -2.22639e-014
lhumerus 75.6252 -47.0042 38.2122
lradius 100.117
lwrist 59.6806
lhand -23.3047 25.5256
lfingers 7.12502
lthumb 3.14888 55.4821
rfemur -8.2646 6.50142 16.1166
rtibia -2.14687e-014
rfoot -3.98497 5.48288
rtoes -3.02922
lfemur -12.1786 7.71662 -17.0857
ltibia 16.3476
lfoot -16.1574 7.44559
ltoes -27.0272
1616
root 1.49162 18.5194 0.47103 8.13731 77.3735 -4.7809
lowerback -13.5239 -5.73521 -6.86383
upperback -5.64213 -6.14674 -5.39102
thorax 1.69438 -2.85196 -2.73551
lowerneck -7.89845 -16.9187 -9.86293
upperneck 7.47021 -22.6882 9.17628
head 5.65958 -10.9377 2.29889
rclavicle -6.75868e-015 -4.77083e-014
rhumerus 48.1648 -37.1938 -44.9254
rradius 48.8772
rwrist -12.3566
rhand -33.9428 9.41834
rfingers 7.12502
rthumb -7.12435 -20.4417
lclavicle -6.75868e-015 -4.77083e-014
lhumerus 74.3162 -47.1049 38.1138
lradius 101.152
lwrist 58.7652
lhand -22.4056 25.2367
lfingers 7.12502
lthumb 4.01714 55.1786
rfemur -8.34678 6.59265 16.0746
rtibia 7.95139e-016
rfoot -3.91699 5.50062
rtoes -2.92693
lfemur -12.2128 7.78418 -17.117
ltibia 16.3381
lfoot -16.1533 7.46189
ltoes -27.1874
1617
root 1.49045 18.5193 0.471691 8.234 77.2494 -4.70779
lowerback -13.5885 -5.54604 -6.74677
upperback -5.70834 -5.90869 -5.41033
thorax 1.64505 -2.73377 -2.78348
lowerneck -7.64224 -16.9917 -10.0133
upperneck 7.46955 -22.8043 9.24639
head 5.65407 -11.0035 2.34113
rclavicle 4.92986e-014 4.77083e-014
rhumerus 48.0482 -37.3428 -44.8152
rradius 49.0099
rwrist -12.5362
rhand -33.9917 9.58389
rfingers 7.12502
rthumb -7.17158 -20.2746
lclavicle 4.92986e-014 4.77083e-014
lhumerus 72.8735 -47.3533 37.9514
lradius 102.289
lwrist 57.9597
lhand -21.5737 24.9014
lfingers 7.12502
lthumb 4.82043 54.8266
rfemur -8.39605 6.71191 16.038
rtibia 1.98785e-014
rfoot -3.90213 5.45721
rtoes -2.76116
lfemur -12.215 7.93666 -17.1464
ltibia 16.3117
lfoot -16.0815 7.43557
ltoes -27.4773
1618
root 1.48777 18.5198 0.472515 8.42991 77.1457 -4.50826
lowerback -13.6114 -5.46038 -6.64395
upperback -5.69642 -5.80703 -5.43206
thorax 1.658 -2.68627 -2.84871
lowerneck -7.53012 -16.9933 -9.90787
upperneck 7.30384 -22.8218 9.32303
head 5.5835 -11.0128 2.36524
rclavicle 2.46493e-014 5.725e-014
rhumerus 48.3433 -37.4931 -45.2058
rradius 49.1904
rwrist -12.8068
rhand -33.8825 9.78207
rfingers 7.12502
rthumb -7.06614 -20.08
lclavicle 2.46493e-014 5.725e-014
lhumerus 71.1872 -47.4017 37.578
lradius 103.626
lwrist 57.1436
lhand -20.7487 24.7764
lfingers 7.12502
lthumb 5.61697 54.6819
rfemur -8.41745 6.80925 15.9833
rtibia -2.06736e-014
rfoot -3.91867 5.396
rtoes -2.75525
lfemur -12.1808 7.99743 -17.1961
ltibia 16.2618
lfoot -16.0964 7.4148
ltoes -27.0474
1619
root 1.48499 18.5221 0.473465 8.93944 77.0797 -3.96563
lowerback -13.6142 -5.47005 -6.66157
upperback -5.60866 -5.81579 -5.42057
thorax 1.75531 -2.69454 -2.8336
lowerneck -7.80593 -16.9485 -9.7032
upperneck 7.27512 -22.7517 9.3018
head 5.58707 -10.9647 2.3238
rclavicle 5.88403e-014 3.49861e-014
rhumerus 48.6964 -37.6444 -45.4647
rradius 49.3553
rwrist -13.1746
rhand -34.0354 9.89597
rfingers 7.12502
rthumb -7.2137 -19.9611
lclavicle 5.88403e-014 3.49861e-014
lhumerus 69.3111 -47.2873 37.1218
lradius 105.049
lwrist 56.0507
lhand -20.0255 24.9122
lfingers 7.12502
lthumb 6.31515 54.798
rfemur -8.40725 6.85777 15.8559
rtibia 1.03368e-014
rfoot -3.97537 5.3855
rtoes -2.983
lfemur -12.1192 7.97836 -17.3188
ltibia 16.206
lfoot -16.0911 7.44827
ltoes -26.6867
1620
root 1.48169 18.5229 0.474893 9.18887 77.0501 -3.64046
lowerback -13.5254 -5.4032 -6.67988
upperback -5.55384 -5.73946 -5.37183
thorax 1.77293 -2.65945 -2.75476
lowerneck -7.97644 -16.9739 -9.64462
upperneck 7.29452 -22.7699 9.23493
head 5.6071 -10.9686 2.28116
rclavicle 1.98785e-014 1.90833e-014
rhumerus 48.637 -37.8141 -45.2072
rradius 49.5561
rwrist -13.7249
rhand -34.3227 10.1615
rfingers 7.12502
rthumb -7.49109 -19.6859
lclavicle 1.98785e-014 1.90833e-014
lhumerus 67.3934 -47.4589 36.7269
lradius 106.496
lwrist 54.8096
lhand -19.3241 24.7725
lfingers 7.12502
lthumb 6.9923 54.637
rfemur -8.34777 6.88377 15.8018
rtibia 1.59028e-015
rfoot -3.98431 5.33146
rtoes -2.95761
lfemur -12.0404 8.08113 -17.3817
ltibia 16.169
lfoot -16.0117 7.32887
ltoes -26.333
1621
root 1.47811 18.5229 0.475807 8.95958 77.0409 -3.7864
lowerback -13.4395 -5.29587 -6.55411
upperback -5.50702 -5.62972 -5.32345
thorax 1.77029 -2.61005 -2.74929
lowerneck -8.04988 -17.0351 -9.62846
upperneck 7.35629 -22.8458 9.1706
head 5.63498 -11.0043 2.24258
rclavicle 5.00937e-014 -1.90833e-014
rhumerus 48.5344 -37.9772 -44.9125
rradius 49.755
rwrist -14.4799
rhand -34.6384 10.2459
rfingers 7.12502
rthumb -7.79581 -19.5904
lclavicle 5.00937e-014 -1.90833e-014
lhumerus 65.4577 -47.7421 36.1258
lradius 108.031
lwrist 53.6298
lhand -18.7805 24.6542
lfingers 7.12502
lthumb 7.51699 54.5006
rfemur -8.25839 6.90814 15.8614
rtibia -3.10104e-014
rfoot -3.99552 5.29753
rtoes -2.97433
lfemur -11.9495 8.13177 -17.3226
ltibia 16.1412
lfoot -15.9887 7.23529
ltoes -26.2488
